<svg id="Layer_1" data-name="Layer 1" xmlns="http://www.w3.org/2000/svg" xmlns:xlink="http://www.w3.org/1999/xlink" viewBox="0 0 457.34 323.87"><defs><style>.cls-1{fill:url(#linear-gradient);}.cls-2{fill:url(#linear-gradient-2);}.cls-3{fill:url(#linear-gradient-3);}.cls-4{fill:url(#linear-gradient-4);}.cls-5{fill:url(#linear-gradient-5);}.cls-6{fill:url(#linear-gradient-6);}.cls-7{fill:url(#linear-gradient-7);}.cls-8{fill:url(#linear-gradient-8);}.cls-9{fill:url(#linear-gradient-9);}.cls-10{fill:url(#linear-gradient-10);}.cls-11{fill:url(#linear-gradient-11);}.cls-12{fill:url(#linear-gradient-12);}.cls-13{fill:url(#linear-gradient-13);}.cls-14{fill:url(#linear-gradient-14);}.cls-15{fill:url(#linear-gradient-15);}.cls-16{fill:url(#linear-gradient-16);}.cls-17{fill:url(#linear-gradient-17);}.cls-18{fill:url(#linear-gradient-18);}.cls-19{fill:url(#linear-gradient-19);}.cls-20{fill:url(#linear-gradient-20);}.cls-21{fill:url(#linear-gradient-21);}.cls-22{fill:url(#linear-gradient-22);}.cls-23{fill:url(#linear-gradient-23);}.cls-24{fill:url(#linear-gradient-24);}.cls-25{fill:url(#linear-gradient-25);}.cls-26{fill:url(#linear-gradient-26);}.cls-27{fill:url(#linear-gradient-27);}.cls-28{fill:url(#linear-gradient-28);}.cls-29{fill:url(#linear-gradient-29);}.cls-30{fill:url(#linear-gradient-30);}.cls-31{fill:url(#linear-gradient-31);}.cls-32{fill:url(#linear-gradient-32);}.cls-33{fill:url(#linear-gradient-33);}.cls-34{fill:url(#linear-gradient-34);}.cls-35{fill:url(#linear-gradient-35);}.cls-36{fill:url(#linear-gradient-36);}.cls-37{fill:url(#linear-gradient-37);}.cls-38{fill:url(#linear-gradient-38);}.cls-39{fill:url(#linear-gradient-39);}.cls-40{fill:url(#linear-gradient-40);}.cls-41{fill:url(#linear-gradient-41);}.cls-42{fill:url(#linear-gradient-42);}.cls-43{fill:url(#linear-gradient-43);}.cls-44{fill:url(#linear-gradient-44);}.cls-45{fill:url(#linear-gradient-45);}.cls-46{fill:url(#linear-gradient-46);}.cls-47{fill:url(#linear-gradient-47);}.cls-48{fill:url(#linear-gradient-48);}.cls-49{fill:url(#linear-gradient-49);}.cls-50{fill:url(#linear-gradient-50);}.cls-51{fill:url(#linear-gradient-51);}.cls-52{fill:url(#linear-gradient-52);}.cls-53{fill:url(#linear-gradient-53);}.cls-54{fill:url(#linear-gradient-54);}.cls-55{fill:url(#linear-gradient-55);}.cls-56{fill:url(#linear-gradient-56);}.cls-57{fill:url(#linear-gradient-57);}.cls-58{fill:url(#linear-gradient-58);}.cls-59{fill:url(#linear-gradient-59);}.cls-60{fill:url(#linear-gradient-60);}.cls-61{fill:url(#linear-gradient-61);}.cls-62{fill:url(#linear-gradient-62);}.cls-63{fill:url(#linear-gradient-63);}.cls-64{fill:url(#linear-gradient-64);}.cls-65{fill:url(#linear-gradient-65);}.cls-66{fill:url(#linear-gradient-66);}.cls-67{fill:url(#linear-gradient-67);}.cls-68{fill:url(#linear-gradient-68);}.cls-69{fill:url(#linear-gradient-69);}.cls-70{fill:url(#linear-gradient-70);}.cls-71{fill:url(#linear-gradient-71);}.cls-72{fill:url(#linear-gradient-72);}.cls-73{fill:url(#linear-gradient-73);}.cls-74{fill:url(#linear-gradient-74);}.cls-75{fill:url(#linear-gradient-75);}.cls-76{fill:url(#linear-gradient-76);}.cls-77{fill:url(#linear-gradient-77);}.cls-78{fill:url(#linear-gradient-78);}.cls-79{fill:url(#linear-gradient-79);}.cls-80{fill:url(#linear-gradient-80);}.cls-81{fill:url(#linear-gradient-81);}.cls-82{fill:url(#linear-gradient-82);}.cls-83{fill:url(#linear-gradient-83);}.cls-84{fill:url(#linear-gradient-84);}.cls-85{fill:url(#linear-gradient-85);}.cls-86{fill:url(#linear-gradient-86);}.cls-87{fill:url(#linear-gradient-87);}.cls-88{fill:url(#linear-gradient-88);}.cls-89{fill:url(#linear-gradient-89);}.cls-90{fill:url(#linear-gradient-90);}.cls-91{fill:url(#linear-gradient-91);}.cls-92{fill:url(#linear-gradient-92);}.cls-93{fill:url(#linear-gradient-93);}.cls-94{fill:url(#linear-gradient-94);}.cls-95{fill:url(#linear-gradient-95);}.cls-96{fill:url(#linear-gradient-96);}.cls-97{fill:url(#linear-gradient-97);}.cls-98{fill:url(#linear-gradient-98);}.cls-99{fill:url(#linear-gradient-99);}.cls-100{fill:url(#linear-gradient-100);}.cls-101{fill:url(#linear-gradient-101);}.cls-102{fill:url(#linear-gradient-102);}.cls-103{fill:url(#linear-gradient-103);}.cls-104{fill:url(#linear-gradient-104);}.cls-105{fill:url(#linear-gradient-105);}.cls-106{fill:url(#linear-gradient-106);}.cls-107{fill:url(#linear-gradient-107);}.cls-108{fill:url(#linear-gradient-108);}.cls-109{fill:url(#linear-gradient-109);}.cls-110{fill:url(#linear-gradient-110);}.cls-111{fill:url(#linear-gradient-111);}.cls-112{fill:url(#linear-gradient-112);}.cls-113{fill:url(#linear-gradient-113);}.cls-114{fill:url(#linear-gradient-114);}.cls-115{fill:url(#linear-gradient-115);}.cls-116{fill:url(#linear-gradient-116);}.cls-117{fill:url(#linear-gradient-117);}.cls-118{fill:url(#linear-gradient-118);}.cls-119{fill:url(#linear-gradient-119);}.cls-120{fill:url(#linear-gradient-120);}.cls-121{fill:url(#linear-gradient-121);}.cls-122{fill:url(#linear-gradient-122);}.cls-123{fill:url(#linear-gradient-123);}.cls-124{fill:url(#linear-gradient-124);}.cls-125{fill:url(#linear-gradient-125);}.cls-126{fill:url(#linear-gradient-126);}.cls-127{fill:url(#linear-gradient-127);}.cls-128{fill:url(#linear-gradient-128);}.cls-129{fill:url(#linear-gradient-129);}.cls-130{fill:url(#linear-gradient-130);}.cls-131{fill:url(#linear-gradient-131);}.cls-132{fill:url(#linear-gradient-132);}.cls-133{fill:url(#linear-gradient-133);}.cls-134{fill:url(#linear-gradient-134);}.cls-135{fill:url(#linear-gradient-135);}.cls-136{fill:url(#linear-gradient-136);}.cls-137{fill:url(#linear-gradient-137);}.cls-138{fill:url(#linear-gradient-138);}.cls-139{fill:url(#linear-gradient-139);}.cls-140{fill:url(#linear-gradient-140);}.cls-141{fill:url(#linear-gradient-141);}.cls-142{fill:url(#linear-gradient-142);}.cls-143{fill:url(#linear-gradient-143);}.cls-144{fill:url(#linear-gradient-144);}.cls-145{fill:url(#linear-gradient-145);}.cls-146{fill:url(#linear-gradient-146);}.cls-147{fill:url(#linear-gradient-147);}.cls-148{fill:url(#linear-gradient-148);}.cls-149{fill:url(#linear-gradient-149);}.cls-150{fill:url(#linear-gradient-150);}.cls-151{fill:url(#linear-gradient-151);}.cls-152{fill:url(#linear-gradient-152);}.cls-153{fill:url(#linear-gradient-153);}</style><linearGradient id="linear-gradient" x1="461.81" y1="438.52" x2="588.49" y2="438.52" gradientUnits="userSpaceOnUse"><stop offset="0" stop-color="#f7dd7b"/><stop offset="0.1" stop-color="#dbb95d"/><stop offset="0.2" stop-color="#c49a43"/><stop offset="0.28" stop-color="#b58733"/><stop offset="0.34" stop-color="#b0802d"/><stop offset="0.36" stop-color="#b78935"/><stop offset="0.44" stop-color="#cea74e"/><stop offset="0.53" stop-color="#e0bf62"/><stop offset="0.62" stop-color="#edd070"/><stop offset="0.72" stop-color="#f5da78"/><stop offset="0.84" stop-color="#f7dd7b"/><stop offset="0.87" stop-color="#f4d977"/><stop offset="0.91" stop-color="#eacc6d"/><stop offset="0.94" stop-color="#dab75b"/><stop offset="0.98" stop-color="#c49a43"/><stop offset="1" stop-color="#b0802d"/></linearGradient><linearGradient id="linear-gradient-2" x1="570.22" y1="363.29" x2="626.32" y2="363.29" xlink:href="#linear-gradient"/><linearGradient id="linear-gradient-3" x1="192.39" y1="369.9" x2="543.23" y2="369.9" xlink:href="#linear-gradient"/><linearGradient id="linear-gradient-4" x1="543.12" y1="388.12" x2="649.73" y2="388.12" xlink:href="#linear-gradient"/><linearGradient id="linear-gradient-5" x1="410.08" y1="173.3" x2="412.67" y2="173.3" xlink:href="#linear-gradient"/><linearGradient id="linear-gradient-6" x1="416.1" y1="172.58" x2="418.7" y2="172.58" xlink:href="#linear-gradient"/><linearGradient id="linear-gradient-7" x1="422.18" y1="172.43" x2="424.76" y2="172.43" xlink:href="#linear-gradient"/><linearGradient id="linear-gradient-8" x1="428.26" y1="172.87" x2="430.79" y2="172.87" xlink:href="#linear-gradient"/><linearGradient id="linear-gradient-9" x1="463.94" y1="281.69" x2="465.77" y2="281.69" xlink:href="#linear-gradient"/><linearGradient id="linear-gradient-10" x1="458.6" y1="285.7" x2="460.62" y2="285.7" xlink:href="#linear-gradient"/><linearGradient id="linear-gradient-11" x1="452.91" y1="289.19" x2="455.08" y2="289.19" xlink:href="#linear-gradient"/><linearGradient id="linear-gradient-12" x1="446.95" y1="292.12" x2="449.2" y2="292.12" xlink:href="#linear-gradient"/><linearGradient id="linear-gradient-13" x1="440.75" y1="294.47" x2="443.06" y2="294.47" xlink:href="#linear-gradient"/><linearGradient id="linear-gradient-14" x1="434.38" y1="296.2" x2="436.67" y2="296.2" xlink:href="#linear-gradient"/><linearGradient id="linear-gradient-15" x1="427.88" y1="297.3" x2="430.15" y2="297.3" xlink:href="#linear-gradient"/><linearGradient id="linear-gradient-16" x1="390.06" y1="290.76" x2="392.32" y2="290.76" xlink:href="#linear-gradient"/><linearGradient id="linear-gradient-17" x1="372.63" y1="277.98" x2="374.89" y2="277.98" xlink:href="#linear-gradient"/><linearGradient id="linear-gradient-18" x1="378.44" y1="283.79" x2="380.7" y2="283.79" xlink:href="#linear-gradient"/><linearGradient id="linear-gradient-19" x1="383.09" y1="287.28" x2="385.35" y2="287.28" xlink:href="#linear-gradient"/><linearGradient id="linear-gradient-20" x1="395.39" y1="293.37" x2="397.66" y2="293.37" xlink:href="#linear-gradient"/><linearGradient id="linear-gradient-21" x1="421.34" y1="297.78" x2="423.51" y2="297.78" xlink:href="#linear-gradient"/><linearGradient id="linear-gradient-22" x1="414.8" y1="297.62" x2="416.84" y2="297.62" xlink:href="#linear-gradient"/><linearGradient id="linear-gradient-23" x1="408.32" y1="296.83" x2="410.2" y2="296.83" xlink:href="#linear-gradient"/><linearGradient id="linear-gradient-24" x1="401.97" y1="295.41" x2="403.65" y2="295.41" xlink:href="#linear-gradient"/><linearGradient id="linear-gradient-25" x1="350.23" y1="146.63" x2="525.9" y2="253.85" xlink:href="#linear-gradient"/><linearGradient id="linear-gradient-26" x1="354.63" y1="137.05" x2="531.52" y2="245.01" xlink:href="#linear-gradient"/><linearGradient id="linear-gradient-27" x1="342.3" y1="158.35" x2="518.67" y2="266" xlink:href="#linear-gradient"/><linearGradient id="linear-gradient-28" x1="344.98" y1="157.02" x2="519.92" y2="263.8" xlink:href="#linear-gradient"/><linearGradient id="linear-gradient-29" x1="331" y1="176.65" x2="507.47" y2="284.35" xlink:href="#linear-gradient"/><linearGradient id="linear-gradient-30" x1="331.09" y1="177.6" x2="507.01" y2="284.96" xlink:href="#linear-gradient"/><linearGradient id="linear-gradient-31" x1="321.26" y1="195.04" x2="496.45" y2="301.96" xlink:href="#linear-gradient"/><linearGradient id="linear-gradient-32" x1="319.13" y1="199.51" x2="494.01" y2="306.25" xlink:href="#linear-gradient"/><linearGradient id="linear-gradient-33" x1="310.45" y1="211.48" x2="486.3" y2="318.81" xlink:href="#linear-gradient"/><linearGradient id="linear-gradient-34" x1="307.89" y1="219.99" x2="481.78" y2="326.12" xlink:href="#linear-gradient"/><linearGradient id="linear-gradient-35" x1="301.41" y1="226.2" x2="477.3" y2="333.55" xlink:href="#linear-gradient"/><linearGradient id="linear-gradient-36" x1="295.53" y1="236" x2="471.41" y2="343.35" xlink:href="#linear-gradient"/><linearGradient id="linear-gradient-37" x1="293.84" y1="237.59" x2="470.28" y2="345.29" xlink:href="#linear-gradient"/><linearGradient id="linear-gradient-38" x1="284.81" y1="247.6" x2="464.03" y2="356.98" xlink:href="#linear-gradient"/><linearGradient id="linear-gradient-39" x1="288.98" y1="245.41" x2="465.49" y2="353.13" xlink:href="#linear-gradient"/><linearGradient id="linear-gradient-40" x1="284.79" y1="259.22" x2="456.69" y2="364.13" xlink:href="#linear-gradient"/><linearGradient id="linear-gradient-41" x1="287.38" y1="248.92" x2="463.43" y2="356.37" xlink:href="#linear-gradient"/><linearGradient id="linear-gradient-42" x1="280.3" y1="260.88" x2="456.05" y2="368.14" xlink:href="#linear-gradient"/><linearGradient id="linear-gradient-43" x1="287.36" y1="249.96" x2="462.56" y2="356.89" xlink:href="#linear-gradient"/><linearGradient id="linear-gradient-44" x1="284.12" y1="263.21" x2="452.67" y2="366.08" xlink:href="#linear-gradient"/><linearGradient id="linear-gradient-45" x1="288.45" y1="247.96" x2="463.81" y2="354.99" xlink:href="#linear-gradient"/><linearGradient id="linear-gradient-46" x1="283.47" y1="259.79" x2="454.67" y2="364.27" xlink:href="#linear-gradient"/><linearGradient id="linear-gradient-47" x1="292.26" y1="241.84" x2="467.34" y2="348.7" xlink:href="#linear-gradient"/><linearGradient id="linear-gradient-48" x1="285.67" y1="250.83" x2="463.19" y2="359.17" xlink:href="#linear-gradient"/><linearGradient id="linear-gradient-49" x1="298.35" y1="231.43" x2="473.76" y2="338.49" xlink:href="#linear-gradient"/><linearGradient id="linear-gradient-50" x1="293.54" y1="238.61" x2="469.87" y2="346.23" xlink:href="#linear-gradient"/><linearGradient id="linear-gradient-51" x1="306.75" y1="217.36" x2="482.51" y2="324.63" xlink:href="#linear-gradient"/><linearGradient id="linear-gradient-52" x1="303.92" y1="222.28" x2="477.61" y2="328.29" xlink:href="#linear-gradient"/><linearGradient id="linear-gradient-53" x1="316.86" y1="200.47" x2="493.23" y2="308.11" xlink:href="#linear-gradient"/><linearGradient id="linear-gradient-54" x1="315.66" y1="202.7" x2="490.6" y2="309.47" xlink:href="#linear-gradient"/><linearGradient id="linear-gradient-55" x1="328.05" y1="182.1" x2="504.52" y2="289.81" xlink:href="#linear-gradient"/><linearGradient id="linear-gradient-56" x1="328.53" y1="181.51" x2="504.45" y2="288.88" xlink:href="#linear-gradient"/><linearGradient id="linear-gradient-57" x1="339.12" y1="164.53" x2="514.31" y2="271.45" xlink:href="#linear-gradient"/><linearGradient id="linear-gradient-58" x1="341.57" y1="160.25" x2="516.45" y2="266.98" xlink:href="#linear-gradient"/><linearGradient id="linear-gradient-59" x1="346.27" y1="152.4" x2="522.39" y2="259.89" xlink:href="#linear-gradient"/><linearGradient id="linear-gradient-60" x1="353.25" y1="141.02" x2="529.24" y2="248.43" xlink:href="#linear-gradient"/><linearGradient id="linear-gradient-61" x1="352.33" y1="142.2" x2="528.94" y2="250" xlink:href="#linear-gradient"/><linearGradient id="linear-gradient-62" x1="353.94" y1="139.86" x2="529.99" y2="247.31" xlink:href="#linear-gradient"/><linearGradient id="linear-gradient-63" x1="358.24" y1="132.92" x2="534.13" y2="240.27" xlink:href="#linear-gradient"/><linearGradient id="linear-gradient-64" x1="364.14" y1="123.13" x2="540.02" y2="230.47" xlink:href="#linear-gradient"/><linearGradient id="linear-gradient-65" x1="365.24" y1="121.17" x2="541.69" y2="228.87" xlink:href="#linear-gradient"/><linearGradient id="linear-gradient-66" x1="371.39" y1="109.41" x2="550.61" y2="218.8" xlink:href="#linear-gradient"/><linearGradient id="linear-gradient-67" x1="370.03" y1="113.32" x2="546.54" y2="221.05" xlink:href="#linear-gradient"/><linearGradient id="linear-gradient-68" x1="379" y1="102.43" x2="550.9" y2="207.35" xlink:href="#linear-gradient"/><linearGradient id="linear-gradient-69" x1="372.37" y1="110.06" x2="548.03" y2="217.27" xlink:href="#linear-gradient"/><linearGradient id="linear-gradient-70" x1="383.22" y1="100.6" x2="551.64" y2="203.39" xlink:href="#linear-gradient"/><linearGradient id="linear-gradient-71" x1="371.75" y1="111.5" x2="547.11" y2="218.53" xlink:href="#linear-gradient"/><linearGradient id="linear-gradient-72" x1="381.05" y1="102.31" x2="552.25" y2="206.79" xlink:href="#linear-gradient"/><linearGradient id="linear-gradient-73" x1="368.23" y1="117.79" x2="543.32" y2="224.65" xlink:href="#linear-gradient"/><linearGradient id="linear-gradient-74" x1="372.3" y1="107.26" x2="549.81" y2="215.61" xlink:href="#linear-gradient"/><linearGradient id="linear-gradient-75" x1="361.8" y1="127.99" x2="537.21" y2="235.05" xlink:href="#linear-gradient"/><linearGradient id="linear-gradient-76" x1="365.66" y1="120.24" x2="541.98" y2="227.86" xlink:href="#linear-gradient"/><linearGradient id="linear-gradient-77" x1="354.8" y1="139.79" x2="530.08" y2="246.77" xlink:href="#linear-gradient"/><linearGradient id="linear-gradient-78" x1="359.34" y1="138.52" x2="531.8" y2="243.78" xlink:href="#linear-gradient"/><linearGradient id="linear-gradient-79" x1="483.77" y1="235.24" x2="484.01" y2="235.24" xlink:href="#linear-gradient"/><linearGradient id="linear-gradient-80" x1="483.47" y1="241.31" x2="483.74" y2="241.31" xlink:href="#linear-gradient"/><linearGradient id="linear-gradient-81" x1="482.57" y1="247.32" x2="482.89" y2="247.32" xlink:href="#linear-gradient"/><linearGradient id="linear-gradient-82" x1="481.07" y1="253.22" x2="481.5" y2="253.22" xlink:href="#linear-gradient"/><linearGradient id="linear-gradient-83" x1="478.79" y1="258.95" x2="479.75" y2="258.95" xlink:href="#linear-gradient"/><linearGradient id="linear-gradient-84" x1="480.81" y1="253.22" x2="481.76" y2="253.22" xlink:href="#linear-gradient"/><linearGradient id="linear-gradient-85" x1="482.42" y1="247.32" x2="483.37" y2="247.32" xlink:href="#linear-gradient"/><linearGradient id="linear-gradient-86" x1="483.13" y1="241.31" x2="484.08" y2="241.31" xlink:href="#linear-gradient"/><linearGradient id="linear-gradient-87" x1="476.17" y1="264.45" x2="477.24" y2="264.45" xlink:href="#linear-gradient"/><linearGradient id="linear-gradient-88" x1="473.12" y1="269.68" x2="474.13" y2="269.68" xlink:href="#linear-gradient"/><linearGradient id="linear-gradient-89" x1="469.43" y1="274.59" x2="470.67" y2="274.59" xlink:href="#linear-gradient"/><linearGradient id="linear-gradient-90" x1="469.06" y1="274.59" x2="471.05" y2="274.59" xlink:href="#linear-gradient"/><linearGradient id="linear-gradient-91" x1="472.63" y1="269.68" x2="474.62" y2="269.68" xlink:href="#linear-gradient"/><linearGradient id="linear-gradient-92" x1="475.71" y1="264.45" x2="477.7" y2="264.45" xlink:href="#linear-gradient"/><linearGradient id="linear-gradient-93" x1="478.37" y1="258.95" x2="480.36" y2="258.95" xlink:href="#linear-gradient"/><linearGradient id="linear-gradient-94" x1="480.29" y1="253.22" x2="482.28" y2="253.22" xlink:href="#linear-gradient"/><linearGradient id="linear-gradient-95" x1="481.9" y1="247.32" x2="483.89" y2="247.32" xlink:href="#linear-gradient"/><linearGradient id="linear-gradient-96" x1="482.61" y1="241.31" x2="484.6" y2="241.31" xlink:href="#linear-gradient"/><linearGradient id="linear-gradient-97" x1="482.93" y1="235.24" x2="484.92" y2="235.24" xlink:href="#linear-gradient"/><linearGradient id="linear-gradient-98" x1="482.61" y1="229.17" x2="484.6" y2="229.17" xlink:href="#linear-gradient"/><linearGradient id="linear-gradient-99" x1="481.74" y1="223.16" x2="483.73" y2="223.16" xlink:href="#linear-gradient"/><linearGradient id="linear-gradient-100" x1="480.29" y1="217.27" x2="482.28" y2="217.27" xlink:href="#linear-gradient"/><linearGradient id="linear-gradient-101" x1="478.27" y1="211.54" x2="480.26" y2="211.54" xlink:href="#linear-gradient"/><linearGradient id="linear-gradient-102" x1="475.71" y1="206.04" x2="477.7" y2="206.04" xlink:href="#linear-gradient"/><linearGradient id="linear-gradient-103" x1="472.62" y1="200.81" x2="474.62" y2="200.81" xlink:href="#linear-gradient"/><linearGradient id="linear-gradient-104" x1="469.05" y1="195.9" x2="471.05" y2="195.9" xlink:href="#linear-gradient"/><linearGradient id="linear-gradient-105" x1="465.02" y1="191.35" x2="467.02" y2="191.35" xlink:href="#linear-gradient"/><linearGradient id="linear-gradient-106" x1="460.58" y1="187.22" x2="462.57" y2="187.22" xlink:href="#linear-gradient"/><linearGradient id="linear-gradient-107" x1="369.19" y1="272.18" x2="371.27" y2="272.18" xlink:href="#linear-gradient"/><linearGradient id="linear-gradient-108" x1="365.86" y1="267.1" x2="367.94" y2="267.1" xlink:href="#linear-gradient"/><linearGradient id="linear-gradient-109" x1="363.03" y1="261.73" x2="365.11" y2="261.73" xlink:href="#linear-gradient"/><linearGradient id="linear-gradient-110" x1="360.74" y1="256.11" x2="362.82" y2="256.11" xlink:href="#linear-gradient"/><linearGradient id="linear-gradient-111" x1="359.01" y1="250.29" x2="361.08" y2="250.29" xlink:href="#linear-gradient"/><linearGradient id="linear-gradient-112" x1="357.85" y1="244.33" x2="359.92" y2="244.33" xlink:href="#linear-gradient"/><linearGradient id="linear-gradient-113" x1="357.27" y1="238.28" x2="359.34" y2="238.28" xlink:href="#linear-gradient"/><linearGradient id="linear-gradient-114" x1="357.27" y1="232.21" x2="359.34" y2="232.21" xlink:href="#linear-gradient"/><linearGradient id="linear-gradient-115" x1="357.84" y1="226.17" x2="359.92" y2="226.17" xlink:href="#linear-gradient"/><linearGradient id="linear-gradient-116" x1="369.87" y1="272.18" x2="370.58" y2="272.18" xlink:href="#linear-gradient"/><linearGradient id="linear-gradient-117" x1="366.53" y1="267.1" x2="367.26" y2="267.1" xlink:href="#linear-gradient"/><linearGradient id="linear-gradient-118" x1="363.69" y1="261.73" x2="364.45" y2="261.73" xlink:href="#linear-gradient"/><linearGradient id="linear-gradient-119" x1="361.36" y1="256.11" x2="362.2" y2="256.11" xlink:href="#linear-gradient"/><linearGradient id="linear-gradient-120" x1="359.57" y1="250.29" x2="360.52" y2="250.29" xlink:href="#linear-gradient"/><linearGradient id="linear-gradient-121" x1="358.34" y1="244.33" x2="359.43" y2="244.33" xlink:href="#linear-gradient"/><linearGradient id="linear-gradient-122" x1="357.69" y1="238.28" x2="358.92" y2="238.28" xlink:href="#linear-gradient"/><linearGradient id="linear-gradient-123" x1="357.62" y1="232.21" x2="358.99" y2="232.21" xlink:href="#linear-gradient"/><linearGradient id="linear-gradient-124" x1="358.12" y1="226.17" x2="359.65" y2="226.17" xlink:href="#linear-gradient"/><linearGradient id="linear-gradient-125" x1="359.2" y1="220.21" x2="360.89" y2="220.21" xlink:href="#linear-gradient"/><linearGradient id="linear-gradient-126" x1="360.86" y1="214.39" x2="362.69" y2="214.39" xlink:href="#linear-gradient"/><linearGradient id="linear-gradient-127" x1="363.09" y1="208.76" x2="365.04" y2="208.76" xlink:href="#linear-gradient"/><linearGradient id="linear-gradient-128" x1="365.87" y1="203.39" x2="367.92" y2="203.39" xlink:href="#linear-gradient"/><linearGradient id="linear-gradient-129" x1="369.16" y1="198.32" x2="371.29" y2="198.32" xlink:href="#linear-gradient"/><linearGradient id="linear-gradient-130" x1="372.94" y1="193.58" x2="375.12" y2="193.58" xlink:href="#linear-gradient"/><linearGradient id="linear-gradient-131" x1="377.15" y1="189.24" x2="379.39" y2="189.24" xlink:href="#linear-gradient"/><linearGradient id="linear-gradient-132" x1="381.76" y1="185.32" x2="384.06" y2="185.32" xlink:href="#linear-gradient"/><linearGradient id="linear-gradient-133" x1="386.72" y1="181.87" x2="389.09" y2="181.87" xlink:href="#linear-gradient"/><linearGradient id="linear-gradient-134" x1="392" y1="178.91" x2="394.42" y2="178.91" xlink:href="#linear-gradient"/><linearGradient id="linear-gradient-135" x1="397.53" y1="176.48" x2="400.01" y2="176.48" xlink:href="#linear-gradient"/><linearGradient id="linear-gradient-136" x1="403.29" y1="174.61" x2="405.81" y2="174.61" xlink:href="#linear-gradient"/><linearGradient id="linear-gradient-137" x1="433.41" y1="173.88" x2="435.83" y2="173.88" xlink:href="#linear-gradient"/><linearGradient id="linear-gradient-138" x1="439.3" y1="175.47" x2="441.66" y2="175.47" xlink:href="#linear-gradient"/><linearGradient id="linear-gradient-139" x1="445.03" y1="177.63" x2="447.28" y2="177.63" xlink:href="#linear-gradient"/><linearGradient id="linear-gradient-140" x1="450.53" y1="180.32" x2="452.67" y2="180.32" xlink:href="#linear-gradient"/><linearGradient id="linear-gradient-141" x1="455.77" y1="183.53" x2="457.73" y2="183.53" xlink:href="#linear-gradient"/><linearGradient id="linear-gradient-142" x1="460.69" y1="187.22" x2="462.45" y2="187.22" xlink:href="#linear-gradient"/><linearGradient id="linear-gradient-143" x1="465.26" y1="191.35" x2="466.78" y2="191.35" xlink:href="#linear-gradient"/><linearGradient id="linear-gradient-144" x1="469.4" y1="195.9" x2="470.69" y2="195.9" xlink:href="#linear-gradient"/><linearGradient id="linear-gradient-145" x1="473.09" y1="200.81" x2="474.15" y2="200.81" xlink:href="#linear-gradient"/><linearGradient id="linear-gradient-146" x1="476.29" y1="206.04" x2="477.12" y2="206.04" xlink:href="#linear-gradient"/><linearGradient id="linear-gradient-147" x1="478.95" y1="211.54" x2="479.58" y2="211.54" xlink:href="#linear-gradient"/><linearGradient id="linear-gradient-148" x1="481.05" y1="217.27" x2="481.52" y2="217.27" xlink:href="#linear-gradient"/><linearGradient id="linear-gradient-149" x1="482.56" y1="223.16" x2="482.91" y2="223.16" xlink:href="#linear-gradient"/><linearGradient id="linear-gradient-150" x1="483.46" y1="229.17" x2="483.75" y2="229.17" xlink:href="#linear-gradient"/><linearGradient id="linear-gradient-151" x1="364.07" y1="235.25" x2="478.05" y2="235.25" xlink:href="#linear-gradient"/><linearGradient id="linear-gradient-152" x1="396.64" y1="235.21" x2="450.73" y2="235.21" xlink:href="#linear-gradient"/><linearGradient id="linear-gradient-153" x1="391.39" y1="263.23" x2="430.81" y2="263.23" xlink:href="#linear-gradient"/></defs><path class="cls-1" d="M588.49,432.85l-2-3.06h-7.66c-2.46-5.25-8.92-12.73-15.84-12.73a9.86,9.86,0,0,0-4,.88c-4.13,1.86-4.18,5.53-6.68,7.71a2.2,2.2,0,0,1-1.54.7,2.13,2.13,0,0,1-1.67-.93c.19.84,1.67,4,3.62,4a2.72,2.72,0,0,0,.56-.09c1.76-.61,3-3.86,4-5.3,2-2.88,4.5-4,7-4,5.35,0,11,5.11,13.89,9.71H507.11c-.31-4.37-1.74-7-5.92-8.36a11.93,11.93,0,0,0-3.67-.52c-2.41,0-5,.47-7.34.47-2.88,0-5.38-.65-6.83-3.57.93,5.75,4.09,6.73,8,6.73,1.91,0,4-.23,6.18-.23,5,0,7.6,1.32,9.06,5.48H461.81l1.9,3.06h40.36v6.76l-.14-.21a13.85,13.85,0,0,0-8.41-2.7c-2.87,0-5.6.87-7.13,3H466.78l1.67,2.7h9.75c3.48,3,3.85,7.24.23,10.31a7.81,7.81,0,0,1-4.78,1.58,6.49,6.49,0,0,1-6.41-4.18l-3-1.12c2,4.92,6.13,7.57,10.26,7.57a10.44,10.44,0,0,0,7.67-3.48c2.69-3.21,1.53-7.85-2.65-10.68h7.78c-.55,4,2.25,9.17,8.8,10.12a6.47,6.47,0,0,0,1.34.09,10,10,0,0,0,6.6-2.49v5.47h-3.35l1.95,3.1h7.71l-1.95-3.1h-1V432.85h29.3v4.42a8.93,8.93,0,0,0-2-.24,9.14,9.14,0,0,0-6,2.18l-.88-1.44a9.08,9.08,0,0,0-5.95-2.13,7.6,7.6,0,0,0-7.2,4.41c-3.34,8,3.72,15.23,10.5,15.23a8.58,8.58,0,0,0,4.46-1.21l-1.91-3a7.16,7.16,0,0,1-4.13,1.25c-4.64,0-9.05-4.18-7.06-9a7.65,7.65,0,0,1,7.34-4.6,9,9,0,0,1,4.23,1,4.75,4.75,0,0,0-1.12,1.44l1.77,2.84c1.11-2.19,4.87-4.05,7.61-4.05h.42v15.65h-3.35l2,3.1h7.71l-2-3.1h-1V432.85H558.4l.37.6a4.09,4.09,0,0,1,1.44-.28,5,5,0,0,1,4.37,3.12c1.3,3.25-.61,8.26-5.16,9.66-1.34-2.47-4.37-8-9-8a6.7,6.7,0,0,0-1.3.14c-5.76,1.21-1.3,10,2.83,11,3.11,5.1,8.17,10.91,14.44,10.91a10.8,10.8,0,0,0,3.72-.7,7.75,7.75,0,0,0,4.3-2.95l1.5,2.39h7.71l-2-3.1h-1V432.85ZM496,450.17c-5,0-7.45-4.54-5.78-7.75h.26l-.14-.21c.92-1.56,2.85-2.77,6-2.91a10.29,10.29,0,0,1,1.11,0,12.06,12.06,0,0,1,6.6,1.84v4A8.57,8.57,0,0,1,496,450.17Zm52.48-4.87a3.55,3.55,0,0,1,3.71-4.42,5.16,5.16,0,0,1,.88.1c3,.42,4.33,2.87,5.81,5.1a17.49,17.49,0,0,1-4.64.61A10.91,10.91,0,0,1,548.51,445.3Zm28.74,10.31h-2.58c.56-1.78-.46-3.82-3.27-5.76,2.28,2.92.61,5-2.23,6.17a10.21,10.21,0,0,1-4.18.84c-4.92,0-9.47-3.35-12.12-7.57a15.07,15.07,0,0,0,3,.28c5.57,0,11.61-2.93,11.23-9.24a9,9,0,0,0-4.41-7.48h14.58Z" transform="translate(-192.39 -136.1)"/><path class="cls-2" d="M575,351.68h16v55.81h-8.2l4.78,7.63h18.91l-4.79-7.63h-2.38V351.68h14.58l-4.78-7.52h-7.62c-.25-8.14,4.37-12.06,8.63-14.25,5.36-2.72,15.62-1.93,16.18-7.17.45-3.76-2.28-9.34-3.87-11.28,2.73,9.46-18.11,2.63-25.63,13.79-3.09,4.63-3.72,11.72-3.91,18.91H570.22Z" transform="translate(-192.39 -136.1)"/><path class="cls-3" d="M528.65,407.49V351.68h14.58l-4.78-7.52h-225c-.75-10.7-4.26-17.15-14.53-20.5a28.79,28.79,0,0,0-9-1.26c-5.92,0-12.3,1.15-18,1.15-7.06,0-13.21-1.61-16.75-8.78,2.28,14.13,10,16.52,19.59,16.52,4.68,0,9.92-.57,15.16-.57,12.23,0,18.64,3.26,22.22,13.44H192.39l4.67,7.52h39.07l.91,1.47a9.84,9.84,0,0,1,3.54-.68c4.77,0,9,3.54,10.7,7.64a17.07,17.07,0,0,1-1,13.67,27.46,27.46,0,0,1-5.24-4.45,48.71,48.71,0,0,0,4.43,6,19.07,19.07,0,0,1-10.81,8.43c-3.31-6-10.71-19.71-22.22-19.71a16,16,0,0,0-3.19.35c-14.11,3-3.19,24.48,7,27,5.57,8.88,9.22,15.26,17.08,22.67,7.06,6.61,14.92,10.94,21.3,10.94a11.18,11.18,0,0,0,7.06-2.28c8.78-7,4.68-16.07-3.3-21.54,4.33,5.59,2.63,11.18-3,14.81a10.18,10.18,0,0,1-5.69,1.6c-11.85,0-25.41-16.74-31.11-25.63a39.59,39.59,0,0,0,7.41.69c9.92,0,20.39-3.77,25.06-11.85,5.12,4.1,11,6.61,17.42,6.61a26.91,26.91,0,0,0,8.43-1.39v21.43h-8.2l4.79,7.63h18.9l-4.78-7.63h-2.38V351.68H306v55.81h-8.2l4.79,7.63h18.91l-4.79-7.63h-2.38V351.68h71.08v19.24H347c-27.57.69-19.24,26.32-4.43,30.76a21.08,21.08,0,0,0,5.69.91c11.85,0,16.06-13.21,6.94-24h30.2v28.93h-8.21l4.79,7.63h18.91l-4.79-7.63h-2.4V351.68h44.78l.91,1.47a9.78,9.78,0,0,1,3.52-.68c4.79,0,9,3.54,10.71,7.64a17,17,0,0,1-1,13.67,28.08,28.08,0,0,1-5.24-4.45,47.77,47.77,0,0,0,4.44,6,19.1,19.1,0,0,1-10.82,8.43c-3.31-6-10.7-19.71-22.22-19.71a16,16,0,0,0-3.19.35c-14.12,3-3.18,24.48,7,27,5.58,8.88,9.22,15.26,17.09,22.67,7.06,6.61,14.91,10.94,21.29,10.94a11.16,11.16,0,0,0,7.06-2.28c8.78-7,4.68-16.07-3.29-21.54,4.33,5.59,2.61,11.18-3,14.81a10.23,10.23,0,0,1-5.7,1.6c-11.85,0-25.41-16.74-31.1-25.63a39.44,39.44,0,0,0,7.41.69c9.9,0,20.38-3.77,25.06-11.85,5.12,4.1,11,6.61,17.42,6.61a28.49,28.49,0,0,0,12-2.81c2.89,8.19,12.53,13.16,22,13.16a22.68,22.68,0,0,0,11.5-2.92v12.61h-8.2l4.79,7.63h18.9L531,407.49ZM226,385.62c-5,0-10.14-.91-14.14-3.41-1.24-6.61,3.31-10.83,9.12-10.83a14.67,14.67,0,0,1,2.17.23c7.29,1,10.58,7.06,14.24,12.53A44,44,0,0,1,226,385.62Zm54.89-7.71a29.92,29.92,0,0,1-10.93,2,33.4,33.4,0,0,1-13.32-2.74,20.7,20.7,0,0,0,.79-7.18c-.34-7.62-4.44-14.91-10.82-18.33h34.28Zm64,17.16a12.62,12.62,0,0,1-4-.56c-5.47-1.72-8-8.43-3.19-13,2.84-2.73,8.66-3,12.87-3h3C358.47,388.13,352.66,395.07,344.91,395.07Zm83.38-9.45c-5,0-10.13-.91-14.12-3.41-1.25-6.61,3.31-10.83,9.11-10.83a14.53,14.53,0,0,1,2.17.23c7.29,1,10.59,7.06,14.23,12.53A43.78,43.78,0,0,1,428.29,385.62Zm44-5.69a33.47,33.47,0,0,1-13.32-2.74,20.7,20.7,0,0,0,.79-7.18c-.33-7.62-4.43-14.91-10.81-18.33h37V379a13.49,13.49,0,0,0-.79-1.88A29.34,29.34,0,0,1,472.26,379.93Zm34.63,11.39a17,17,0,0,1-13.55-6.27V351.68h27V385C517.87,388.85,512.51,391.32,506.89,391.32Z" transform="translate(-192.39 -136.1)"/><path class="cls-4" d="M637.2,412.73h-.56c-6.38,0-18.45,11.06-35.89,11.06A43.76,43.76,0,0,1,588.57,422c-11.62-3.19-24.38-22.43-31.44-32.12,5.47-1.59,17.77-7.29,21.3-12.07,7.51-9.68.22-25.63-14-31.09a15.2,15.2,0,0,0-5.69-1c-5.24,0-10.83,2.28-12.88,7-4.79,11,9.92,24.38,17.77,25.62-3.75,1.82-7.29,3.77-11.39,4.79-1.83-2.16-4-5.12-6.72-5.12-.35,0-.57.1-.8.1-4.44.81,1.71,8.33,2.85,9.8,1.71,2.05,3.19,2.73,5.24,2.73a14.63,14.63,0,0,0,3-.33c6.71,10.25,23.11,33.37,35,38.05a33.17,33.17,0,0,0,12.65,2.38c10.48,0,20.73-4.43,29.84-9.45a14.22,14.22,0,0,1,6.49-1.94c3.54,0,6,2.63,10,7.29C646.44,418.2,642.56,413.31,637.2,412.73Zm-87-49.55c-1.6-8,4.1-11.5,10.7-11.5,8.55,0,18.46,6,15.16,16.05a15.12,15.12,0,0,1-11.39,4.68C557.92,372.41,551.32,368.76,550.18,363.18Z" transform="translate(-192.39 -136.1)"/><path class="cls-5" d="M411.37,174.6a1.3,1.3,0,1,1,1.3-1.3A1.3,1.3,0,0,1,411.37,174.6Z" transform="translate(-192.39 -136.1)"/><path class="cls-6" d="M417.4,173.88a1.3,1.3,0,1,1,1.3-1.3A1.3,1.3,0,0,1,417.4,173.88Z" transform="translate(-192.39 -136.1)"/><path class="cls-7" d="M423.47,173.72a1.29,1.29,0,1,1,1.29-1.29A1.29,1.29,0,0,1,423.47,173.72Z" transform="translate(-192.39 -136.1)"/><path class="cls-8" d="M429.53,174.13a1.27,1.27,0,1,1,1.26-1.26A1.27,1.27,0,0,1,429.53,174.13Z" transform="translate(-192.39 -136.1)"/><path class="cls-9" d="M464.85,282.63a.94.94,0,0,1,0-1.88A.94.94,0,0,1,464.85,282.63Z" transform="translate(-192.39 -136.1)"/><path class="cls-10" d="M459.61,286.74a1,1,0,0,1,0-2.08A1,1,0,0,1,459.61,286.74Z" transform="translate(-192.39 -136.1)"/><path class="cls-11" d="M454,290.31a1.12,1.12,0,0,1,0-2.23A1.12,1.12,0,0,1,454,290.31Z" transform="translate(-192.39 -136.1)"/><path class="cls-12" d="M448.08,293.28a1.16,1.16,0,0,1,0-2.31A1.16,1.16,0,0,1,448.08,293.28Z" transform="translate(-192.39 -136.1)"/><path class="cls-13" d="M441.9,295.66a1.19,1.19,0,0,1,0-2.38A1.19,1.19,0,0,1,441.9,295.66Z" transform="translate(-192.39 -136.1)"/><path class="cls-14" d="M435.53,297.38a1.18,1.18,0,0,1,0-2.36A1.18,1.18,0,0,1,435.53,297.38Z" transform="translate(-192.39 -136.1)"/><path class="cls-15" d="M429,298.47a1.17,1.17,0,0,1,0-2.33A1.17,1.17,0,0,1,429,298.47Z" transform="translate(-192.39 -136.1)"/><path class="cls-16" d="M391.19,291.92a1.16,1.16,0,0,1,0-2.32A1.16,1.16,0,0,1,391.19,291.92Z" transform="translate(-192.39 -136.1)"/><path class="cls-17" d="M373.76,279.14a1.16,1.16,0,0,1,0-2.32A1.16,1.16,0,0,1,373.76,279.14Z" transform="translate(-192.39 -136.1)"/><path class="cls-18" d="M379.57,285a1.16,1.16,0,0,1,0-2.32A1.16,1.16,0,0,1,379.57,285Z" transform="translate(-192.39 -136.1)"/><path class="cls-19" d="M384.22,288.44a1.16,1.16,0,0,1,0-2.32A1.16,1.16,0,0,1,384.22,288.44Z" transform="translate(-192.39 -136.1)"/><path class="cls-20" d="M396.53,294.53a1.16,1.16,0,0,1,0-2.32A1.16,1.16,0,0,1,396.53,294.53Z" transform="translate(-192.39 -136.1)"/><path class="cls-21" d="M422.42,298.89a1.12,1.12,0,0,1,0-2.23A1.12,1.12,0,0,1,422.42,298.89Z" transform="translate(-192.39 -136.1)"/><path class="cls-22" d="M415.82,298.66a1,1,0,0,1,0-2.09A1,1,0,0,1,415.82,298.66Z" transform="translate(-192.39 -136.1)"/><path class="cls-23" d="M409.26,297.79a1,1,0,0,1,0-1.92A1,1,0,0,1,409.26,297.79Z" transform="translate(-192.39 -136.1)"/><path class="cls-24" d="M402.81,296.27a.86.86,0,0,1,0-1.72A.86.86,0,0,1,402.81,296.27Z" transform="translate(-192.39 -136.1)"/><path class="cls-25" d="M493.14,240.73,493,242.5c7.48,6.71,10.12-3.79,16.55-4.25,7.17,1,1.33,11.22-1.6,4.13,2.86,1.38,3.73-3.3.75-3.38-4.75.52-3.66,6.79.26,7.82a5.05,5.05,0,0,0,6.17-6.83c-8.5-13.86-14.69,10.35-21.91-.36,0-.33.07-1,.07-1.33,3.27,2.64,7.82.24,9.41-3.06h-2.82c-1.68,2.56-4.56,2.53-6.53.5l0-.5h-2.44c-.07,1.77-.05,3.55-.23,5.31C490.81,239.32,493.24,239.44,493.14,240.73Z" transform="translate(-192.39 -136.1)"/><path class="cls-26" d="M513,236.34c2.27,2.24,6.85,3.39,7.23-1.1h-7.79A1.13,1.13,0,0,0,513,236.34Z" transform="translate(-192.39 -136.1)"/><path class="cls-27" d="M487,258.39a71.68,71.68,0,0,0,3.57-15.92l.14-1.92c.1-1.23,2.53-1.11,2.43.18-.13,2-.39,4.18-.71,6.16,9.47-4.76,8.74,7.17,15.45,8.38,6.67.19,3.25-10.32-1-4.43,1.52-.24,2.9,1.09,1.94,2.62-4,3.57-6.33-4.89-2-6,4.78-2.82,9.7,3.33,6.32,7.54-11.45,11.3-11.65-13.73-21.23-5.27-.09.43-.2.86-.3,1.3,3.72-1.6,6.77,1.27,8.18,4.51a1.07,1.07,0,0,1-.43,1.52c-2.8,2.14-6.92,3.06-9.3-.16l-.43,1.26c4.21,12.2,16.54-9.54,21.06,6,.94,6.75-9,7.81-10,1.43-1-2.9,4.73-6.41,5.49-2.26.08,1.82-1.77,2.29-3,1.29.94,7.63,9.26-.86,2.61-3.57-6.35-1.26-11.55,8.25-17.11-.21.21-.48.45-1.17.61-1.66C489.71,258,487.39,257.22,487,258.39Zm7.74-1.52a8,8,0,0,0,2.47-1.22c-.91-2.91-3.77-3.59-6.16-2.15l-.27.94C491.76,255.62,492.84,257.26,494.74,256.87Z" transform="translate(-192.39 -136.1)"/><path class="cls-28" d="M509.31,258.89c.24,3.32,6.09,6.76,7.53,2C518,256.17,511.2,256.09,509.31,258.89Z" transform="translate(-192.39 -136.1)"/><path class="cls-29" d="M478.76,274.65A69.87,69.87,0,0,0,487,258.39c.39-1.17,2.71-.41,2.3.81-.63,1.84-1.49,4-2.31,5.74,10.36-2.14,6.57,9.16,12.76,12.13,6.43,1.88,5.75-9.14.19-4.54,1.53.17,2.54,1.82,1.17,3-4.7,2.46-4.92-6.3-.33-6.31,6.55-1.61,8.42,7.85,2.58,9.91-12.27,4.49-6.46-16.85-17.6-11.61l-.6,1.18c3.95-.59,6.27,3,6.7,6.48.37,1.4-1.34,1.47-2.28,1.77a5.72,5.72,0,0,1-7.47-3l-.72,1.12c.84,12.8,18.59-4.83,18.75,11.29-.59,5.45-8.26,6-9.79.87-2.27-4,5.4-8.15,5.64-2.86-.28,1.71-2.35,1.78-3.23.47-1.07,7.6,9.18,1.61,3.45-2.77-5.79-2.82-13.38,4.91-16.46-4.64.24-.5,1.49-1.62,1.12-2.25S479.35,273.87,478.76,274.65Zm7.89.54a7.53,7.53,0,0,0,2.67-.54c-.14-3-2.6-4.43-5.39-3.69l-.49.85C484.12,273.25,484.72,275.08,486.65,275.19Z" transform="translate(-192.39 -136.1)"/><path class="cls-30" d="M500.17,280.92c-.63,3.3,4.24,8.12,6.74,3.9S502.68,278.73,500.17,280.92Z" transform="translate(-192.39 -136.1)"/><path class="cls-31" d="M466.57,288.24a70.34,70.34,0,0,0,12.19-13.59c.75-1,2.73.32,2,1.38-1.1,1.58-2.51,3.46-3.72,5,10.5.56,4,10.6,9.17,15,5.7,3.49,7.95-7.3,1.36-4.33,3,1.08.18,4.93-1.89,2.91-3-3.62,2.16-7.44,5.71-5.34,5.81,2.7,1.56,10.89-4.06,9.73-10.19-1-.75-18-12.17-15.78-.29.33-.57.68-.88,1,4.2.48,5.69,5.31,4.49,8.81-3.49,1.19-8.33-.3-8.8-4.5-.31.32-.66.59-1,.89-2.47,12.64,19.1,0,15.23,15.75a5,5,0,0,1-9.18.47c-2.09-3.54,1.73-8.72,5.35-5.71,2,2.1-1.87,4.89-2.92,1.86-3,7.1,8.46,3.89,4-1.78-4.89-4.26-14.13,1.37-14.71-8.72.47-.36.9-.77,1.35-1.15C469.14,289.24,467.5,287.43,466.57,288.24Zm7.48,2.55a7.89,7.89,0,0,0,2.75.19c.62-3-1.44-5-4.27-5-.16.18-.51.53-.69.7C472.09,288.22,472.19,290.18,474.05,290.79Z" transform="translate(-192.39 -136.1)"/><path class="cls-32" d="M485.66,299.84c-1.47,3,1.88,8.87,5.51,5.51C494.53,301.73,488.66,298.38,485.66,299.84Z" transform="translate(-192.39 -136.1)"/><path class="cls-33" d="M451.32,298.25a71.32,71.32,0,0,0,15.25-10c.93-.81,2.57,1,1.59,1.85-1.47,1.29-3.27,2.71-4.87,3.84,10.07,3.35,1.1,11.25,5,16.87,4.63,4.84,9.56-5,2.43-3.84,1.29.88,1.2,2.94-.49,3.21-5.3-.24-1.11-7.91,2.86-5.64,5.38,1.38,4.46,9.27-.88,9.79-16.13-.17,1.53-17.9-11.28-18.75l-1.12.72a5.73,5.73,0,0,1,3,7.47c-.3.94-.37,2.65-1.77,2.28-3.44-.43-7.08-2.76-6.48-6.7l-1.18.6c-5.25,11.13,16.1,5.34,11.61,17.6-2.19,5.91-11.28,3.87-9.91-2.58,0-4.57,8.75-4.38,6.31.33-1.22,1.38-2.88.35-3-1.19-4.72,6,7.07,6.09,4.37-.68-3.66-5.42-14-2.29-12-12.25l1.61-.72C453.52,299.86,452.41,297.69,451.32,298.25Zm6.55,4.39a7.68,7.68,0,0,0,2.59.86c1.42-2.72-.07-5.13-2.83-5.88l-.85.49C456.62,299.65,456.3,301.67,457.87,302.64Z" transform="translate(-192.39 -136.1)"/><path class="cls-34" d="M466.74,314.35c-2.19,2.51-.38,9.16,3.9,6.74S470,313.73,466.74,314.35Z" transform="translate(-192.39 -136.1)"/><path class="cls-35" d="M434,303.9a70.12,70.12,0,0,0,17.32-5.65c1.09-.56,2.2,1.61,1.05,2.2-1.74.8-3.89,1.76-5.7,2.43,8.84,5.77-1.82,11.14.46,17.59,3.21,5.86,10.54-2.39,3.35-3.08,1,1.21.49,3-1.32,3-5.7-2.33,2.28-9,5.84-3.16,3.68,5.27-4.12,10.21-8.39,6.4-8.29-5.95,8.34-16-2.64-19.76l-1.26.43c3.22,2.39,2.3,6.5.16,9.3a1.07,1.07,0,0,1-1.52.43c-3.24-1.41-6.11-4.46-4.52-8.18l-1.29.3c-7.65,8.72,11.79,9.13,7.56,18.43-2.77,6.85-13.06,3.67-9.84-3.52,1.13-4.33,9.58-2,6,2-1.54,1-2.88-.44-2.62-2-6.13,4.65,5.38,7.62,4.4.49-2.1-6.09-12.92-6-8.35-14.92l1.74-.31C435.72,306.08,435.21,303.69,434,303.9Zm5.19,6a7.2,7.2,0,0,0,2.28,1.53c2-2.28,1.25-5-1.21-6.43l-.94.27C438.79,306.67,437.89,308.38,439.19,309.86Z" transform="translate(-192.39 -136.1)"/><path class="cls-36" d="M444.71,323.49c-2.81,1.88-2.72,8.73,2,7.53C451.47,329.58,448,323.74,444.71,323.49Z" transform="translate(-192.39 -136.1)"/><path class="cls-37" d="M415.76,304.89a69.3,69.3,0,0,0,18.24-1c1.21-.21,1.72,2.18.45,2.4-2,.39-4.14.66-6.13.9,7,7.93-4.69,10.26-4.13,17.08,1.52,6.48,10.8.5,4-2.11,1.34,2.85-3.32,3.68-3.4.72.53-4.75,6.8-3.66,7.82.26,1.7,4.08-3,7.82-6.82,6.17-13.87-8.5,10.36-14.69-.36-21.91-.33,0-1,.07-1.34.07,2.64,3.28.25,7.82-3.05,9.41-3.29-1.59-5.69-6.14-3.05-9.41-.33,0-1,0-1.33-.07-10.73,7.22,13.5,13.37-.36,21.91a5.05,5.05,0,0,1-6.83-6.17c1-3.92,7.3-5,7.82-.25-.08,3-4.76,2.1-3.38-.75-7.09,2.92,3.14,8.77,4.12,1.6-.45-6.42-11-9.11-4.24-16.55l1.77.13C416.86,307.43,417,305,415.76,304.89Zm3.49,7.09a8.16,8.16,0,0,0,1.81,2.09c2.56-1.68,2.53-4.56.49-6.53a8,8,0,0,1-1,0C419.69,308.79,418.37,310.24,419.25,312Z" transform="translate(-192.39 -136.1)"/><path class="cls-38" d="M421.06,326.6c-3.15,1.07-4.93,7.6,0,7.79C426,334.19,424.22,327.68,421.06,326.6Z" transform="translate(-192.39 -136.1)"/><path class="cls-39" d="M397.92,301.18a71.12,71.12,0,0,0,15.92,3.57l1.92.14c1.23.1,1.1,2.54-.18,2.44-2-.14-4.18-.4-6.16-.72,4.76,9.48-7.17,8.74-8.38,15.46-.19,6.66,10.32,3.24,4.43-1,.24,1.52-1.1,2.9-2.62,1.94-3.57-4,4.89-6.32,6-2,2.82,4.78-3.34,9.7-7.55,6.33-11.29-11.45,13.74-11.66,5.28-21.24-.44-.09-.86-.2-1.3-.3,1.6,3.72-1.27,6.77-4.51,8.18a1.07,1.07,0,0,1-1.52-.43c-2.14-2.8-3.06-6.92.15-9.3l-1.25-.43c-12.2,4.21,9.54,16.54-6,21.06-6.75.95-7.82-9-1.43-10,2.9-1,6.41,4.73,2.26,5.49-1.82.08-2.29-1.77-1.29-3-7.63.94.86,9.26,3.57,2.61,1.26-6.35-8.25-11.54.21-17.1.48.2,1.16.44,1.66.6C398.33,303.89,399.09,301.57,397.92,301.18Zm1.52,7.74a7.8,7.8,0,0,0,1.22,2.47c2.9-.91,3.59-3.77,2.15-6.16l-.94-.27C400.69,305.94,399,307,399.44,308.92Z" transform="translate(-192.39 -136.1)"/><path class="cls-40" d="M397.42,323.5c-3.32.24-6.77,6.08-2,7.52C400.14,332.21,400.22,325.38,397.42,323.5Z" transform="translate(-192.39 -136.1)"/><path class="cls-41" d="M386.59,303.36a6.27,6.27,0,0,0,1-4l1.18.6c5.25,11.13-16.11,5.35-11.61,17.6,2.06,5.83,11.52,4,9.91-2.58,0-4.59-8.77-4.37-6.32.33,1.21,1.37,2.86.36,3-1.16,4.6,5.55-6.42,6.23-4.54-.2,2.95-6.17,14.28-2.43,12.12-12.76,1.77.82,3.91,1.68,5.75,2.31,1.22.41,2-1.91.81-2.3a68.63,68.63,0,0,1-11.78-5.42l-1.22,2.11.43.24c.73,2.79-.64,5.25-3.69,5.39l-1.41,2.44A7.89,7.89,0,0,0,386.59,303.36Z" transform="translate(-192.39 -136.1)"/><path class="cls-42" d="M375.61,320.32c.86-1.62,1-4.65-.22-6l-3.91,6.74A3.1,3.1,0,0,0,375.61,320.32Z" transform="translate(-192.39 -136.1)"/><path class="cls-43" d="M380.28,295l-1.44-1c-9.56,3.11-1.82,10.65-4.65,16.47-4.37,5.72-10.36-4.53-2.77-3.46-1.3.88-1.23,3,.47,3.23,5.3-.24,1.12-7.91-2.86-5.64-5.16,1.53-4.57,9.21.88,9.79,16.13-.18-1.52-17.9,11.29-18.75l1.12.72c-3.87,1.47-4.2,6.67-2.07,9.65l1.41-2.44c-1.41-2.72.07-5.13,2.84-5.88l.42.25,1.22-2.11c-1.49-.84-3.06-1.86-4.48-2.82C382.67,293.69,381.34,295.67,380.28,295Z" transform="translate(-192.39 -136.1)"/><path class="cls-44" d="M374.14,314.31c-3.1.83-6.38,4.36-2.66,6.78l3.91-6.74A1.18,1.18,0,0,0,374.14,314.31Z" transform="translate(-192.39 -136.1)"/><path class="cls-45" d="M368.07,280.75a69.72,69.72,0,0,0,13.59,12.19c1,.75-.32,2.73-1.38,2-1.58-1.09-3.47-2.51-5-3.72-.55,10.51-10.59,4-15,9.17-3.5,5.7,7.3,8,4.33,1.36-1.08,3-4.94.19-2.91-1.89,3.61-3,7.43,2.16,5.34,5.71-2.7,5.81-10.9,1.56-9.74-4.06,1-10.18,18-.75,15.79-12.16-.33-.3-.68-.57-1-.89-.48,4.2-5.31,5.7-8.81,4.5-1.2-3.5.29-8.34,4.5-8.81-.32-.31-.6-.66-.89-1-12.64-2.48,0,19.1-15.75,15.22a5,5,0,0,1-.47-9.18c3.54-2.08,8.72,1.74,5.71,5.35-2.1,2-4.89-1.87-1.86-2.92-7.1-3-3.89,8.46,1.78,4.05,4.26-4.89-1.37-14.13,8.72-14.71.36.47.77.9,1.15,1.35C367.06,283.32,368.88,281.68,368.07,280.75Zm-2.55,7.48a7.66,7.66,0,0,0-.19,2.75c3,.63,5-1.44,5-4.26-.19-.17-.53-.52-.7-.7C368.09,286.28,366.13,286.37,365.52,288.23Z" transform="translate(-192.39 -136.1)"/><path class="cls-46" d="M356.47,299.85c-3-1.48-8.87,1.88-5.51,5.5C354.58,308.71,357.93,302.84,356.47,299.85Z" transform="translate(-192.39 -136.1)"/><path class="cls-47" d="M358.06,265.5a71.08,71.08,0,0,0,10,15.25c.81.93-1,2.57-1.85,1.59-1.29-1.47-2.71-3.27-3.84-4.87-3.35,10.07-11.25,1.11-16.87,5-4.84,4.62,5,9.55,3.84,2.43-.88,1.28-2.94,1.2-3.21-.5.23-5.3,7.91-1.11,5.63,2.86-1.37,5.39-9.26,4.46-9.78-.87.17-16.13,17.9,1.52,18.75-11.29L360,274a5.73,5.73,0,0,1-7.47,3c-.94-.3-2.65-.37-2.28-1.77.43-3.44,2.75-7.08,6.7-6.48l-.61-1.18c-11.12-5.24-5.34,16.1-17.59,11.61-5.91-2.19-3.88-11.28,2.58-9.91,4.57,0,4.38,8.75-.33,6.32-1.38-1.22-.36-2.88,1.19-3-6-4.72-6.09,7.07.68,4.37,5.42-3.66,2.28-14,12.24-12l.73,1.62C356.45,267.7,358.62,266.59,358.06,265.5Zm-4.4,6.56a7.76,7.76,0,0,0-.86,2.59c2.73,1.41,5.14-.08,5.88-2.84l-.48-.85C356.66,270.81,354.64,270.48,353.66,272.06Z" transform="translate(-192.39 -136.1)"/><path class="cls-48" d="M342,280.92c-2.51-2.19-9.16-.37-6.75,3.9S342.58,284.23,342,280.92Z" transform="translate(-192.39 -136.1)"/><path class="cls-49" d="M352.41,248.18a70,70,0,0,0,5.65,17.32c.56,1.09-1.61,2.2-2.2,1.06-.8-1.75-1.76-3.9-2.43-5.7-5.77,8.83-11.14-1.83-17.59.46-5.86,3.2,2.39,10.53,3.08,3.34-1.21,1-3,.49-3-1.32,2.33-5.7,9,2.28,3.16,5.85-5.27,3.68-10.21-4.13-6.4-8.39,5.95-8.3,16,8.33,19.76-2.65l-.43-1.26c-2.39,3.22-6.5,2.3-9.3.16a1.06,1.06,0,0,1-.43-1.52c1.41-3.23,4.46-6.11,8.18-4.52-.1-.43-.21-.86-.3-1.29-8.72-7.65-9.13,11.79-18.43,7.56-6.86-2.77-3.68-13.06,3.52-9.83,4.33,1.12,2,9.58-2,6-1-1.54.44-2.88,2-2.62-4.65-6.13-7.63,5.38-.49,4.4,6.09-2.1,6-12.92,14.92-8.35l.31,1.74C350.23,249.9,352.62,249.4,352.41,248.18Zm-6,5.19a7.2,7.2,0,0,0-1.53,2.28c2.27,2,5,1.25,6.43-1.21l-.27-.94C349.64,253,347.92,252.07,346.45,253.37Z" transform="translate(-192.39 -136.1)"/><path class="cls-50" d="M332.81,258.89c-1.88-2.81-8.72-2.72-7.52,2C326.73,265.65,332.56,262.21,332.81,258.89Z" transform="translate(-192.39 -136.1)"/><path class="cls-51" d="M351.41,229.94a69.73,69.73,0,0,0,1,18.24c.21,1.22-2.18,1.72-2.4.45-.39-2-.67-4.14-.9-6.13-7.93,7-10.26-4.69-17.08-4.13-6.48,1.52-.5,10.8,2.11,4-2.85,1.34-3.68-3.32-.73-3.39,4.75.52,3.67,6.79-.26,7.81-4.07,1.7-7.82-3-6.16-6.82,8.5-13.87,14.69,10.36,21.91-.36,0-.33-.07-1-.07-1.33-3.28,2.64-7.83.24-9.41-3.06,1.58-3.29,6.14-5.69,9.41-3.05,0-.33,0-1,.07-1.33-7.23-10.73-13.37,13.51-21.91-.36a5,5,0,0,1,6.16-6.83c3.93,1,5,7.3.26,7.82-3-.08-2.1-4.76.75-3.38-2.92-7.09-8.77,3.14-1.6,4.12,6.42-.45,9.1-11,16.55-4.24l-.13,1.77C348.88,231.05,351.32,231.17,351.41,229.94Zm-7.09,3.49a8.29,8.29,0,0,0-2.08,1.81c1.68,2.56,4.56,2.53,6.52.5,0-.25,0-.74,0-1C347.52,233.87,346.07,232.55,344.32,233.43Z" transform="translate(-192.39 -136.1)"/><path class="cls-52" d="M329.71,235.25c-1.08-3.16-7.6-4.94-7.79,0C322.11,240.17,328.62,238.4,329.71,235.25Z" transform="translate(-192.39 -136.1)"/><path class="cls-53" d="M355.13,212.1A70.58,70.58,0,0,0,351.56,228l-.15,1.92c-.09,1.23-2.53,1.11-2.43-.18.13-2,.4-4.18.72-6.16-9.48,4.76-8.75-7.17-15.46-8.38-6.67-.19-3.25,10.32,1,4.43-1.52.24-2.9-1.09-1.95-2.62,4-3.57,6.33,4.89,2,6-4.78,2.82-9.71-3.33-6.33-7.54,11.45-11.3,11.66,13.73,21.24,5.27.09-.43.2-.86.3-1.3-3.73,1.6-6.77-1.27-8.18-4.51a1.06,1.06,0,0,1,.43-1.52c2.79-2.14,6.92-3.06,9.3.16l.43-1.26c-4.21-12.2-16.54,9.54-21.06-6-.95-6.75,9-7.81,10-1.43,1,2.9-4.73,6.41-5.48,2.26-.08-1.82,1.77-2.29,3-1.29-.95-7.63-9.27.86-2.62,3.57,6.36,1.26,11.55-8.25,17.11.21-.2.48-.44,1.17-.6,1.66C352.42,212.51,354.74,213.27,355.13,212.1Zm-7.75,1.52a8.08,8.08,0,0,0-2.46,1.22c.9,2.91,3.77,3.59,6.16,2.15l.27-.94C350.36,214.87,349.29,213.23,347.38,213.62Z" transform="translate(-192.39 -136.1)"/><path class="cls-54" d="M332.81,211.6c-.24-3.32-6.08-6.76-7.52-2C324.1,214.32,330.93,214.4,332.81,211.6Z" transform="translate(-192.39 -136.1)"/><path class="cls-55" d="M363.36,195.84a70.22,70.22,0,0,0-8.23,16.26c-.39,1.17-2.71.41-2.3-.81.63-1.84,1.49-4,2.3-5.74-10.35,2.14-6.57-9.16-12.75-12.13-6.43-1.88-5.76,9.14-.2,4.54-1.53-.17-2.53-1.82-1.16-3,4.7-2.46,4.91,6.3.33,6.31-6.56,1.61-8.42-7.85-2.58-9.91,12.26-4.49,6.46,16.85,17.59,11.61l.61-1.18c-4,.59-6.27-3-6.7-6.48-.37-1.4,1.34-1.47,2.28-1.77a5.73,5.73,0,0,1,7.47,3l.72-1.12c-.84-12.8-18.59,4.83-18.76-11.29.6-5.45,8.26-6,9.8-.87,2.27,4-5.4,8.15-5.64,2.86.27-1.71,2.35-1.78,3.22-.47,1.08-7.6-9.18-1.61-3.45,2.77,5.8,2.82,13.38-4.91,16.47,4.64-.25.5-1.5,1.62-1.12,2.25S362.77,196.62,363.36,195.84Zm-7.88-.54a7.58,7.58,0,0,0-2.68.54c.14,3,2.61,4.43,5.4,3.69l.48-.85C358,197.24,357.41,195.41,355.48,195.3Z" transform="translate(-192.39 -136.1)"/><path class="cls-56" d="M342,189.57c.63-3.3-4.24-8.12-6.75-3.9S339.44,191.76,342,189.57Z" transform="translate(-192.39 -136.1)"/><path class="cls-57" d="M375.56,182.25a70.39,70.39,0,0,0-12.2,13.59c-.75,1-2.73-.32-2-1.38,1.09-1.58,2.51-3.46,3.72-5-10.51-.56-4-10.6-9.17-15-5.7-3.49-8,7.3-1.36,4.33-3-1.08-.19-4.93,1.89-2.91,3,3.62-2.17,7.44-5.71,5.34-5.81-2.7-1.56-10.89,4-9.73,10.19,1,.76,18,12.17,15.78.29-.33.57-.68.89-1-4.21-.48-5.7-5.31-4.5-8.81,3.5-1.19,8.33.3,8.81,4.5.31-.32.66-.59,1-.89,2.47-12.64-19.1,0-15.23-15.75a5,5,0,0,1,9.18-.47c2.09,3.54-1.73,8.72-5.34,5.71-2-2.1,1.87-4.89,2.92-1.86,3-7.1-8.46-3.89-4.05,1.78,4.88,4.26,14.12-1.37,14.7,8.72-.46.36-.89.77-1.34,1.15C373,181.25,374.62,183.06,375.56,182.25Zm-7.48-2.55a7.89,7.89,0,0,0-2.75-.19c-.63,3,1.43,5,4.26,5,.17-.18.51-.53.7-.7C370,182.27,369.93,180.31,368.08,179.7Z" transform="translate(-192.39 -136.1)"/><path class="cls-58" d="M356.46,170.65c1.48-3-1.88-8.87-5.5-5.51C347.6,168.76,353.46,172.11,356.46,170.65Z" transform="translate(-192.39 -136.1)"/><path class="cls-59" d="M379.33,171.33a6.2,6.2,0,0,0,3,2.87l-1.12.72c-12.8-.84,4.83-18.59-11.29-18.75-6.67.81-5.42,10.73,1.23,10,3.26.1,4.86-6.19.75-5.89-1.69.27-1.77,2.33-.49,3.21-7.12,1.2-2.2-8.68,2.43-3.83,3.9,5.59-5.05,13.54,5,16.86-1.6,1.13-3.4,2.55-4.87,3.84-1,.85.65,2.66,1.59,1.85a67.63,67.63,0,0,1,10.58-7.52l-1.22-2.11-.42.25c-2.77-.75-4.25-3.16-2.84-5.88l-1.41-2.44A7.89,7.89,0,0,0,379.33,171.33Z" transform="translate(-192.39 -136.1)"/><path class="cls-60" d="M370.1,153.37c.95,1.52,3.52,3.17,5.29,2.77l-3.91-6.74A3.11,3.11,0,0,0,370.1,153.37Z" transform="translate(-192.39 -136.1)"/><path class="cls-61" d="M389.75,170l1.62-.72c2-10-8.29-6.81-12-12.25-2.77-6.65,9.11-6.71,4.38-.68-.15-1.54-1.81-2.57-3-1.19-2.44,4.71,6.33,4.9,6.32.33,1.37-6.45-7.73-8.5-9.91-2.58-4.49,12.27,16.85,6.46,11.61,17.6l-1.18.6c.67-4.09-3.74-7-7.34-6.6l1.41,2.44c3,.14,4.42,2.6,3.69,5.39l-.43.24,1.22,2.11c1.51-.91,3.11-1.68,4.67-2.49C389.71,172.8,388.6,170.63,389.75,170Z" transform="translate(-192.39 -136.1)"/><path class="cls-62" d="M376,155.09c.83-3.07-.59-7.73-4.56-5.69l3.91,6.74A1.15,1.15,0,0,0,376,155.09Z" transform="translate(-192.39 -136.1)"/><path class="cls-63" d="M408.12,166.59a70.05,70.05,0,0,0-17.31,5.65c-1.1.56-2.21-1.61-1.06-2.2,1.74-.8,3.9-1.76,5.7-2.43-8.83-5.77,1.82-11.14-.46-17.59-3.2-5.86-10.53,2.39-3.34,3.08-1-1.21-.49-3,1.31-3,5.7,2.33-2.28,9-5.84,3.16-3.68-5.27,4.12-10.21,8.39-6.4,8.3,5.95-8.33,16,2.65,19.76l1.25-.43c-3.21-2.39-2.29-6.5-.15-9.3a1.07,1.07,0,0,1,1.52-.43c3.23,1.41,6.11,4.46,4.51,8.18l1.3-.3c7.64-8.72-11.8-9.13-7.57-18.43,2.78-6.85,13.06-3.67,9.84,3.52-1.12,4.33-9.58,2-6-2,1.54-1,2.88.45,2.62,2,6.13-4.65-5.38-7.62-4.4-.49,2.1,6.09,12.92,6,8.35,14.92l-1.74.31C406.41,164.41,406.91,166.8,408.12,166.59Zm-5.18-6a7.31,7.31,0,0,0-2.28-1.53c-2.06,2.28-1.25,5,1.21,6.43l.94-.27C403.33,163.82,404.24,162.11,402.94,160.63Z" transform="translate(-192.39 -136.1)"/><path class="cls-64" d="M397.42,147c2.8-1.88,2.72-8.73-2-7.53C390.66,140.91,394.1,146.75,397.42,147Z" transform="translate(-192.39 -136.1)"/><path class="cls-65" d="M426.37,165.6a69.38,69.38,0,0,0-18.25,1c-1.21.21-1.71-2.18-.44-2.4,2-.39,4.13-.66,6.13-.9-7-7.93,4.69-10.26,4.13-17.08-1.52-6.48-10.8-.5-4,2.11-1.34-2.85,3.32-3.68,3.39-.72-.52,4.75-6.79,3.66-7.81-.26-1.7-4.08,3-7.82,6.82-6.17,13.86,8.5-10.36,14.69.36,21.91.33,0,1-.07,1.33-.07-2.64-3.28-.24-7.82,3.05-9.41,3.3,1.59,5.7,6.14,3.06,9.41.33,0,1,0,1.33.07,10.73-7.22-13.51-13.37.36-21.91a5,5,0,0,1,6.82,6.17c-1,3.92-7.3,5-7.81.25.08-3,4.76-2.1,3.38.75,7.09-2.92-3.14-8.77-4.13-1.6.46,6.42,11,9.11,4.25,16.55l-1.77-.13C425.26,163.06,425.14,165.5,426.37,165.6Zm-3.49-7.09a8,8,0,0,0-1.82-2.09c-2.55,1.68-2.53,4.56-.49,6.53a8,8,0,0,1,1,0C422.44,161.7,423.75,160.25,422.88,158.51Z" transform="translate(-192.39 -136.1)"/><path class="cls-66" d="M421.06,143.89c3.16-1.07,4.93-7.6,0-7.79C416.14,136.3,417.91,142.81,421.06,143.89Z" transform="translate(-192.39 -136.1)"/><path class="cls-67" d="M444.21,169.31a71.25,71.25,0,0,0-15.92-3.57l-1.92-.14c-1.23-.1-1.11-2.54.18-2.44,2,.14,4.18.4,6.16.72-4.76-9.48,7.17-8.74,8.38-15.46.19-6.66-10.32-3.24-4.43,1-.24-1.52,1.09-2.9,2.62-1.94,3.57,4-4.9,6.32-6,2-2.83-4.78,3.33-9.7,7.54-6.33,11.3,11.45-13.73,11.66-5.27,21.24l1.29.3c-1.59-3.72,1.28-6.77,4.52-8.18a1.07,1.07,0,0,1,1.52.43c2.14,2.8,3.06,6.92-.16,9.3l1.26.43c12.2-4.21-9.54-16.54,6-21.06,6.75-.95,7.81,9,1.42,10-2.9,1-6.4-4.73-2.26-5.49,1.82-.08,2.29,1.77,1.3,3,7.63-.94-.86-9.26-3.57-2.61-1.26,6.35,8.24,11.54-.21,17.1-.48-.2-1.17-.44-1.67-.6C443.79,166.6,443,168.92,444.21,169.31Zm-1.53-7.74a7.78,7.78,0,0,0-1.21-2.47c-2.91.91-3.59,3.77-2.15,6.16l.94.27C441.43,164.55,443.08,163.47,442.68,161.57Z" transform="translate(-192.39 -136.1)"/><path class="cls-68" d="M444.7,147c3.33-.24,6.77-6.08,2-7.52C442,138.28,441.91,145.11,444.7,147Z" transform="translate(-192.39 -136.1)"/><path class="cls-69" d="M460.47,177.55a70.26,70.26,0,0,0-16.26-8.24c-1.17-.39-.42-2.71.8-2.3,1.85.63,4,1.49,5.75,2.31-2.14-10.36,9.16-6.57,12.13-12.76,1.88-6.43-9.15-5.75-4.54-.2.16-1.52,1.81-2.53,3-1.16,2.45,4.7-6.31,4.91-6.31.33-1.61-6.56,7.84-8.42,9.9-2.58,4.5,12.27-16.85,6.46-11.6,17.6l1.18.6c-.6-4,3-6.27,6.48-6.7,1.4-.37,1.46,1.34,1.77,2.28a5.73,5.73,0,0,1-3,7.47l1.12.72c12.8-.84-4.83-18.59,11.28-18.75,5.45.59,6.05,8.26.88,9.79-4,2.27-8.15-5.4-2.86-5.64,1.71.27,1.78,2.35.47,3.23,7.6,1.07,1.61-9.19-2.77-3.46-2.82,5.8,4.91,13.38-4.64,16.47-.5-.25-1.63-1.5-2.25-1.12S459.69,177,460.47,177.55Zm.54-7.89a7.33,7.33,0,0,0-.55-2.67c-3,.14-4.42,2.6-3.68,5.39l.85.49C459.07,172.19,460.9,171.59,461,169.66Z" transform="translate(-192.39 -136.1)"/><path class="cls-70" d="M466.74,156.14c3.3.63,8.12-4.24,3.9-6.74S464.55,153.62,466.74,156.14Z" transform="translate(-192.39 -136.1)"/><path class="cls-71" d="M474.06,189.74a70.3,70.3,0,0,0-13.59-12.19c-1-.75.32-2.73,1.38-2,1.58,1.09,3.46,2.51,5,3.72.55-10.51,10.6-4,15-9.17,3.49-5.7-7.31-8-4.33-1.36,1.08-3,4.93-.19,2.91,1.89-3.62,3-7.44-2.16-5.35-5.71,2.7-5.81,10.9-1.56,9.74,4.06-1,10.18-18,.75-15.79,12.16.34.3.69.57,1,.89.47-4.2,5.3-5.7,8.81-4.5,1.19,3.5-.3,8.34-4.5,8.81.31.31.59.66.88,1,12.65,2.48,0-19.1,15.76-15.22a5,5,0,0,1,.47,9.18c-3.55,2.08-8.72-1.74-5.71-5.35,2.1-2,4.89,1.87,1.86,2.92,7.1,3,3.89-8.46-1.78-4.05-4.26,4.89,1.37,14.13-8.72,14.71-.36-.47-.77-.9-1.15-1.35C475.06,187.17,473.25,188.81,474.06,189.74Zm2.55-7.48a8.14,8.14,0,0,0,.19-2.75c-3-.63-5,1.44-5,4.26.18.17.53.52.69.7C474,184.21,476,184.12,476.61,182.26Z" transform="translate(-192.39 -136.1)"/><path class="cls-72" d="M485.66,170.64c3,1.48,8.87-1.88,5.51-5.5C487.54,161.78,484.2,167.65,485.66,170.64Z" transform="translate(-192.39 -136.1)"/><path class="cls-73" d="M484.07,205a71.08,71.08,0,0,0-10-15.25c-.81-.93,1-2.57,1.85-1.59,1.29,1.47,2.71,3.27,3.84,4.87,3.34-10.07,11.24-1.11,16.86-5,4.85-4.62-5-9.55-3.83-2.43.88-1.28,2.94-1.2,3.21.5-.24,5.3-7.92,1.11-5.64-2.86,1.38-5.39,9.26-4.46,9.79.87-.18,16.13-17.9-1.52-18.75,11.29l.72,1.12a5.72,5.72,0,0,1,7.47-3c.94.3,2.65.37,2.28,1.77-.43,3.44-2.76,7.08-6.7,6.48l.6,1.18c11.13,5.24,5.34-16.1,17.6-11.61,5.91,2.19,3.87,11.28-2.58,9.91-4.57,0-4.38-8.75.33-6.32,1.38,1.22.35,2.88-1.19,3,6,4.72,6.09-7.07-.68-4.37-5.43,3.66-2.29,14-12.25,12l-.72-1.62C485.68,202.79,483.5,203.9,484.07,205Zm4.39-6.56a7.54,7.54,0,0,0,.86-2.59c-2.72-1.41-5.13.08-5.88,2.84l.49.85C485.47,199.68,487.49,200,488.46,198.43Z" transform="translate(-192.39 -136.1)"/><path class="cls-74" d="M500.17,189.57c2.51,2.19,9.15.37,6.74-3.9S499.54,186.26,500.17,189.57Z" transform="translate(-192.39 -136.1)"/><path class="cls-75" d="M489.72,222.31A70,70,0,0,0,484.07,205c-.57-1.09,1.61-2.2,2.2-1.06.8,1.75,1.76,3.9,2.42,5.7,5.77-8.83,11.14,1.83,17.6-.46,5.85-3.2-2.39-10.53-3.08-3.34,1.21-1,3-.49,3,1.31-2.33,5.71-9-2.27-3.16-5.84,5.27-3.68,10.21,4.13,6.4,8.39-6,8.3-16-8.33-19.76,2.65l.43,1.26c2.39-3.22,6.5-2.3,9.3-.16a1.08,1.08,0,0,1,.43,1.52c-1.41,3.23-4.46,6.11-8.18,4.52.1.43.21.86.3,1.29,8.72,7.65,9.13-11.79,18.43-7.56,6.85,2.77,3.67,13.06-3.52,9.83-4.34-1.12-2-9.58,2-6,1,1.54-.44,2.88-2,2.62,4.65,6.13,7.62-5.38.48-4.4-6.08,2.1-6,12.92-14.91,8.35l-.31-1.74C491.89,220.59,489.51,221.09,489.72,222.31Zm6-5.19a7.37,7.37,0,0,0,1.53-2.28c-2.28-2.05-5-1.25-6.43,1.21l.27.94C492.49,217.52,494.2,218.42,495.68,217.12Z" transform="translate(-192.39 -136.1)"/><path class="cls-76" d="M509.31,211.6c1.88,2.81,8.72,2.72,7.53-2C515.4,204.84,509.56,208.28,509.31,211.6Z" transform="translate(-192.39 -136.1)"/><path class="cls-77" d="M497.29,231a6.27,6.27,0,0,0-4,1.15c0-.33,0-1-.07-1.33,7.2-10.72,13.42,13.5,21.91-.36,1.65-3.81-2.09-8.52-6.17-6.82-3.92,1-5,7.29-.26,7.81,3-.07,2.13-4.73-.72-3.39,2.6-6.78,8.59,2.5,2.1,4-6.79.57-9.17-11.17-17.08-4.13-.23-2-.5-4.15-.89-6.13-.23-1.27-2.61-.77-2.4.45a72.86,72.86,0,0,1,1.22,12.93h2.44l0-.49c2-2,4.85-2.06,6.53.49h2.82A8.11,8.11,0,0,0,497.29,231Z" transform="translate(-192.39 -136.1)"/><path class="cls-78" d="M517.44,232.06c-1.8.06-4.54,1.45-5,3.18h7.79A3.19,3.19,0,0,0,517.44,232.06Z" transform="translate(-192.39 -136.1)"/><path class="cls-79" d="M483.89,235.37a.13.13,0,0,1,0-.25A.13.13,0,0,1,483.89,235.37Z" transform="translate(-192.39 -136.1)"/><path class="cls-80" d="M483.6,241.45a.14.14,0,0,1,0-.28A.14.14,0,0,1,483.6,241.45Z" transform="translate(-192.39 -136.1)"/><path class="cls-81" d="M482.73,247.48a.16.16,0,0,1,0-.32A.16.16,0,1,1,482.73,247.48Z" transform="translate(-192.39 -136.1)"/><path class="cls-82" d="M481.28,253.44a.23.23,0,0,1,0-.45A.23.23,0,1,1,481.28,253.44Z" transform="translate(-192.39 -136.1)"/><path class="cls-83" d="M479.27,259.43a.49.49,0,0,1,0-1A.49.49,0,0,1,479.27,259.43Z" transform="translate(-192.39 -136.1)"/><path class="cls-84" d="M481.28,253.71a.49.49,0,0,1,0-1A.49.49,0,0,1,481.28,253.71Z" transform="translate(-192.39 -136.1)"/><path class="cls-85" d="M482.9,247.81a.49.49,0,0,1,0-1A.49.49,0,0,1,482.9,247.81Z" transform="translate(-192.39 -136.1)"/><path class="cls-86" d="M483.6,241.8a.49.49,0,0,1,0-1A.49.49,0,0,1,483.6,241.8Z" transform="translate(-192.39 -136.1)"/><path class="cls-87" d="M476.71,265a.55.55,0,0,1,0-1.1A.55.55,0,0,1,476.71,265Z" transform="translate(-192.39 -136.1)"/><path class="cls-88" d="M473.62,270.2a.52.52,0,0,1,0-1A.52.52,0,0,1,473.62,270.2Z" transform="translate(-192.39 -136.1)"/><path class="cls-89" d="M470.05,275.23a.64.64,0,0,1,0-1.28A.64.64,0,0,1,470.05,275.23Z" transform="translate(-192.39 -136.1)"/><path class="cls-90" d="M470.05,275.61a1,1,0,0,1,0-2A1,1,0,0,1,470.05,275.61Z" transform="translate(-192.39 -136.1)"/><path class="cls-91" d="M473.62,270.7a1,1,0,0,1,0-2A1,1,0,0,1,473.62,270.7Z" transform="translate(-192.39 -136.1)"/><path class="cls-92" d="M476.71,265.47a1,1,0,0,1,0-2A1,1,0,0,1,476.71,265.47Z" transform="translate(-192.39 -136.1)"/><path class="cls-93" d="M479.36,260a1,1,0,0,1,0-2.05A1,1,0,0,1,479.36,260Z" transform="translate(-192.39 -136.1)"/><path class="cls-94" d="M481.28,254.24a1,1,0,0,1,0-2.05A1,1,0,0,1,481.28,254.24Z" transform="translate(-192.39 -136.1)"/><path class="cls-95" d="M482.9,248.35a1,1,0,0,1,0-2A1,1,0,0,1,482.9,248.35Z" transform="translate(-192.39 -136.1)"/><path class="cls-96" d="M483.6,242.33a1,1,0,0,1,0-2A1,1,0,0,1,483.6,242.33Z" transform="translate(-192.39 -136.1)"/><path class="cls-97" d="M483.92,236.27a1,1,0,0,1,0-2.05A1,1,0,0,1,483.92,236.27Z" transform="translate(-192.39 -136.1)"/><path class="cls-98" d="M483.6,230.2a1,1,0,0,1,0-2A1,1,0,0,1,483.6,230.2Z" transform="translate(-192.39 -136.1)"/><path class="cls-99" d="M482.73,224.19a1,1,0,0,1,0-2.05A1,1,0,0,1,482.73,224.19Z" transform="translate(-192.39 -136.1)"/><path class="cls-100" d="M481.28,218.29a1,1,0,0,1,0-2A1,1,0,0,1,481.28,218.29Z" transform="translate(-192.39 -136.1)"/><path class="cls-101" d="M479.27,212.56a1,1,0,0,1,0-2A1,1,0,0,1,479.27,212.56Z" transform="translate(-192.39 -136.1)"/><path class="cls-102" d="M476.71,207.06a1,1,0,0,1,0-2.05A1,1,0,0,1,476.71,207.06Z" transform="translate(-192.39 -136.1)"/><path class="cls-103" d="M473.62,201.83a1,1,0,0,1,0-2.05A1,1,0,0,1,473.62,201.83Z" transform="translate(-192.39 -136.1)"/><path class="cls-104" d="M470.05,196.92a1,1,0,0,1,0-2A1,1,0,0,1,470.05,196.92Z" transform="translate(-192.39 -136.1)"/><path class="cls-105" d="M466,192.38a1,1,0,0,1,0-2A1,1,0,0,1,466,192.38Z" transform="translate(-192.39 -136.1)"/><path class="cls-106" d="M461.57,188.24a1,1,0,0,1,0-2.05A1,1,0,0,1,461.57,188.24Z" transform="translate(-192.39 -136.1)"/><path class="cls-107" d="M370.23,273.25a1.07,1.07,0,0,1,0-2.14A1.07,1.07,0,0,1,370.23,273.25Z" transform="translate(-192.39 -136.1)"/><path class="cls-108" d="M366.9,268.17a1.07,1.07,0,0,1,0-2.14A1.07,1.07,0,0,1,366.9,268.17Z" transform="translate(-192.39 -136.1)"/><path class="cls-109" d="M364.07,262.8a1.07,1.07,0,0,1,0-2.14A1.07,1.07,0,0,1,364.07,262.8Z" transform="translate(-192.39 -136.1)"/><path class="cls-110" d="M361.78,257.17a1.07,1.07,0,0,1,0-2.13A1.07,1.07,0,0,1,361.78,257.17Z" transform="translate(-192.39 -136.1)"/><path class="cls-111" d="M360,251.35a1.07,1.07,0,0,1,0-2.13A1.07,1.07,0,0,1,360,251.35Z" transform="translate(-192.39 -136.1)"/><path class="cls-112" d="M358.88,245.4a1.07,1.07,0,0,1,0-2.14A1.07,1.07,0,0,1,358.88,245.4Z" transform="translate(-192.39 -136.1)"/><path class="cls-113" d="M358.3,239.35a1.07,1.07,0,0,1,0-2.13A1.07,1.07,0,0,1,358.3,239.35Z" transform="translate(-192.39 -136.1)"/><path class="cls-114" d="M358.3,233.28a1.07,1.07,0,0,1,0-2.14A1.07,1.07,0,0,1,358.3,233.28Z" transform="translate(-192.39 -136.1)"/><path class="cls-115" d="M358.88,227.23a1.07,1.07,0,0,1,0-2.13A1.07,1.07,0,0,1,358.88,227.23Z" transform="translate(-192.39 -136.1)"/><path class="cls-116" d="M370.23,272.54a.37.37,0,0,1,0-.73A.37.37,0,0,1,370.23,272.54Z" transform="translate(-192.39 -136.1)"/><path class="cls-117" d="M366.9,267.48a.38.38,0,0,1,0-.76A.38.38,0,0,1,366.9,267.48Z" transform="translate(-192.39 -136.1)"/><path class="cls-118" d="M364.07,262.12a.4.4,0,0,1,0-.79A.4.4,0,0,1,364.07,262.12Z" transform="translate(-192.39 -136.1)"/><path class="cls-119" d="M361.78,256.54a.44.44,0,0,1,0-.87A.44.44,0,0,1,361.78,256.54Z" transform="translate(-192.39 -136.1)"/><path class="cls-120" d="M360,250.78a.49.49,0,0,1,0-1A.49.49,0,0,1,360,250.78Z" transform="translate(-192.39 -136.1)"/><path class="cls-121" d="M358.88,244.89a.56.56,0,0,1,0-1.12A.56.56,0,0,1,358.88,244.89Z" transform="translate(-192.39 -136.1)"/><path class="cls-122" d="M358.3,238.91a.63.63,0,0,1,0-1.26A.63.63,0,0,1,358.3,238.91Z" transform="translate(-192.39 -136.1)"/><path class="cls-123" d="M358.3,232.92a.71.71,0,0,1,0-1.41A.71.71,0,0,1,358.3,232.92Z" transform="translate(-192.39 -136.1)"/><path class="cls-124" d="M358.88,227a.79.79,0,0,1,0-1.57A.79.79,0,0,1,358.88,227Z" transform="translate(-192.39 -136.1)"/><path class="cls-125" d="M360,221.07a.87.87,0,0,1,0-1.73A.87.87,0,0,1,360,221.07Z" transform="translate(-192.39 -136.1)"/><path class="cls-126" d="M361.78,215.33a.94.94,0,0,1,0-1.88A.94.94,0,0,1,361.78,215.33Z" transform="translate(-192.39 -136.1)"/><path class="cls-127" d="M364.07,209.77a1,1,0,0,1,0-2A1,1,0,0,1,364.07,209.77Z" transform="translate(-192.39 -136.1)"/><path class="cls-128" d="M366.89,204.44a1.05,1.05,0,0,1,0-2.1A1.05,1.05,0,0,1,366.89,204.44Z" transform="translate(-192.39 -136.1)"/><path class="cls-129" d="M370.23,199.41a1.1,1.1,0,0,1,0-2.19A1.1,1.1,0,0,1,370.23,199.41Z" transform="translate(-192.39 -136.1)"/><path class="cls-130" d="M374,194.71a1.13,1.13,0,0,1,0-2.25A1.13,1.13,0,0,1,374,194.71Z" transform="translate(-192.39 -136.1)"/><path class="cls-131" d="M378.27,190.39a1.16,1.16,0,0,1,0-2.31A1.16,1.16,0,0,1,378.27,190.39Z" transform="translate(-192.39 -136.1)"/><path class="cls-132" d="M382.91,186.5a1.18,1.18,0,0,1,0-2.36A1.18,1.18,0,0,1,382.91,186.5Z" transform="translate(-192.39 -136.1)"/><path class="cls-133" d="M387.9,183.08a1.22,1.22,0,0,1,0-2.43A1.22,1.22,0,0,1,387.9,183.08Z" transform="translate(-192.39 -136.1)"/><path class="cls-134" d="M393.21,180.16a1.25,1.25,0,0,1,0-2.49A1.25,1.25,0,0,1,393.21,180.16Z" transform="translate(-192.39 -136.1)"/><path class="cls-135" d="M398.77,177.76a1.28,1.28,0,0,1,0-2.55A1.28,1.28,0,0,1,398.77,177.76Z" transform="translate(-192.39 -136.1)"/><path class="cls-136" d="M404.55,175.9a1.29,1.29,0,0,1,0-2.58A1.29,1.29,0,0,1,404.55,175.9Z" transform="translate(-192.39 -136.1)"/><path class="cls-137" d="M434.62,175.12a1.24,1.24,0,0,1,0-2.48A1.24,1.24,0,0,1,434.62,175.12Z" transform="translate(-192.39 -136.1)"/><path class="cls-138" d="M440.48,176.69a1.22,1.22,0,0,1,0-2.43A1.22,1.22,0,0,1,440.48,176.69Z" transform="translate(-192.39 -136.1)"/><path class="cls-139" d="M446.16,178.78a1.16,1.16,0,0,1,0-2.31A1.16,1.16,0,0,1,446.16,178.78Z" transform="translate(-192.39 -136.1)"/><path class="cls-140" d="M451.6,181.42a1.1,1.1,0,0,1,0-2.2A1.1,1.1,0,0,1,451.6,181.42Z" transform="translate(-192.39 -136.1)"/><path class="cls-141" d="M456.75,184.54a1,1,0,0,1,0-2A1,1,0,0,1,456.75,184.54Z" transform="translate(-192.39 -136.1)"/><path class="cls-142" d="M461.57,188.12a.91.91,0,0,1,0-1.81A.91.91,0,0,1,461.57,188.12Z" transform="translate(-192.39 -136.1)"/><path class="cls-143" d="M466,192.14a.79.79,0,0,1,0-1.57A.79.79,0,0,1,466,192.14Z" transform="translate(-192.39 -136.1)"/><path class="cls-144" d="M470.05,196.56a.67.67,0,0,1,0-1.33A.67.67,0,0,1,470.05,196.56Z" transform="translate(-192.39 -136.1)"/><path class="cls-145" d="M473.62,201.35a.55.55,0,0,1,0-1.09A.55.55,0,0,1,473.62,201.35Z" transform="translate(-192.39 -136.1)"/><path class="cls-146" d="M476.71,206.46a.43.43,0,0,1,0-.85A.43.43,0,0,1,476.71,206.46Z" transform="translate(-192.39 -136.1)"/><path class="cls-147" d="M479.27,211.87a.33.33,0,0,1,0-.65A.33.33,0,0,1,479.27,211.87Z" transform="translate(-192.39 -136.1)"/><path class="cls-148" d="M481.28,217.51c-.31,0-.31-.49,0-.49A.25.25,0,0,1,481.28,217.51Z" transform="translate(-192.39 -136.1)"/><path class="cls-149" d="M482.73,223.34a.18.18,0,0,1,0-.35A.18.18,0,0,1,482.73,223.34Z" transform="translate(-192.39 -136.1)"/><path class="cls-150" d="M483.6,229.32c-.19,0-.19-.3,0-.29S483.79,229.32,483.6,229.32Z" transform="translate(-192.39 -136.1)"/><path class="cls-151" d="M421.06,293.07c-76-1.37-76-114.3,0-115.65C497.05,178.79,497,291.72,421.06,293.07Zm0-113.22c-72.8,1.31-72.78,109.49,0,110.79C493.86,289.33,493.85,181.15,421.06,179.85Z" transform="translate(-192.39 -136.1)"/><path class="cls-152" d="M411.6,193.29h23.3a2.8,2.8,0,0,1,.34.05c-4,2-5,3.71-4.36,7.7h17V220.2c-2.13-8.75-7.71-14.65-17.1-17.93V229l-3.39-1.07c-3.23-1-6.45-2-9.69-2.92-1-.28-1.32-.67-1.31-1.6.05-6.53,0-13.06,0-19.59v-1.38c-.92.5-1.75.85-2.46,1.34-5,3.45-7.15,8-6.05,13.55,1.14,5.7,5.15,9.23,11.34,11a171.77,171.77,0,0,1,17,5.38c7.78,3.14,12.49,8.79,14.07,16.31,2.47,11.82-5.37,23.05-18.23,26.3-1.48.37-3,.57-4.39.83a44.08,44.08,0,0,0,5.82-2.73c4.79-3.16,6.93-7.55,6.14-12.81-.85-5.71-4.55-9.51-10.64-11.42-5.77-1.81-11.67-3.35-17.32-5.43A22.11,22.11,0,0,1,398,231.29c-4.67-12.55,3.08-25.57,17.34-29.32.82-.21,1.2-.48,1.08-1.25a7.22,7.22,0,0,1,0-1C416.41,196.24,415.36,194.78,411.6,193.29Z" transform="translate(-192.39 -136.1)"/><path class="cls-153" d="M416.41,249.26c1.5.47,2.88.91,4.27,1.33,3,.91,6,1.8,9,2.75.41.13,1,.52,1,.79,0,3.28.5,6.61-.53,9.83-2.17,6.82-7.13,11.29-14.88,12.78s-14.31-.59-19.41-6a15.57,15.57,0,0,1-4.2-14,5,5,0,0,1,4.54-3.9,5.58,5.58,0,0,1,5.65,2.51,4.39,4.39,0,0,1-.83,5.59,8.14,8.14,0,0,0-3.07,6.29c0,4.27,3.67,7.79,8.69,8.11a9,9,0,0,0,9.52-6.48,8.72,8.72,0,0,0,.23-2.16c0-5.31,0-10.63,0-15.94Z" transform="translate(-192.39 -136.1)"/></svg>